<?xml version="1.0" encoding="UTF-8"?>
<svg id="Layer_1" data-name="Layer 1" xmlns="http://www.w3.org/2000/svg" viewBox="0 0 392.74 81.25">
  <g>
    <path d="M4.03,43.77c1.32-1.19,2.5-2.21,4-3.2-.22-2.08.41-4.29.43-6.25.02-1.61-.41-2.98-.39-4.59.05-3.05,1.27-5.85,2.48-8.59-4.05-.27-7.04-.89-10.01,2.44l-.18-1.86c3.31-2.06,6.29-7.3,10.42-7.59,1.55-.11,2.94.71,4.46.66,1.69-.06,3.18-1.05,4.79-1.37-.92,3.57-3.94,6.94-2.46,10.88l8.9-9.34c.42-.3.95-.73,1.45-.83,1.22-.24-.02,1.18-.08,1.62-.23,1.89,1.61,4.86,3.28,5.71,2.87,1.48,4.15-.96,6.8-.65-.75,1.42-1.76,2.67-2.27,4.22-3.03,9.2-1.09,18.63-.58,27.89.41,7.43-2.05,12.67-5.84,18.74-1.04,1.66-5.99,8.93-7.36,9.49-.65.27-.59-.34-.44-.79.63-1.85,2.38-3.77,3.27-5.51,6.57-12.85,1.78-23.59,2.64-37.41.19-3.04,1.01-6.08,1.62-8.94-.47-.54-2.15.17-3.16-.01-2.12-.38-4.78-4.06-4.4-6.31-.27-.33-3.94,3.72-4.13,4.47-.21.8-.44,3.83-.46,4.81-.05,2.65.34,5.53.43,8.2,1.59.52,2.36,1.05,4.08.54.32-.09,3.51-2.2,3.23-.63-.18.97-3.16,3.55-4.1,4.31-1.08.88-2.18,2.04-3.63,2.19l.68,13.67,2.81-.7c0,.27.05.58-.04.84-.3.85-6.67,5.12-7.34,6.71-3.26.05-4.17-2.54-7.8-1.15-.83.32-1.14,1.64-2.01.43,1.42-2.78,5.2-3.52,5.3-7.02.03-1.01-.43-1.92-.41-2.81.05-1.87.46-3.59.4-5.63-.04-1.44-.53-2.85-.41-4.32-1.92-.96-4.72.17-6.36,1.34-.18.13-1.38,2.25-1.67.88-.21-1,3.16-3.79,4.02-4.57ZM16.16,46.78c-.67-.11-.94.27-1.05.88-.58,3.15.57,7.52-.38,10.84l1.59.58-.16-12.29ZM16.17,38.88v-10.71c-.92-.15-.61.15-.79.76-.95,3.13.12,7.16-.26,10.47.38.12.97-.23,1.05-.52ZM15.17,26.2c.08.25.3.4.48.57.96,0,1.4-5.19.36-5.95-.73,0-1.06,4.65-.83,5.39Z"/>
    <path d="M48.32,29.11c2.5-2.01,5.21-4.93,7.89-6.67.55-.36,1.04-.64,1.74-.54-.05,1.22-3.65,2.7-3.01,3.86.27.48,1.96,1.36,2.53,1.87,1.08.98,3.17,3.85,4.87,3.6.17-.03,2.33-2.07,2.26-.74-.02.4-1.78,1.43-2.11,1.84-1.08,1.33-1.32,4.78-1.42,6.56-.2,3.75.25,7.65.2,11.41l-12.93,10.62c-2.44,1.28-5.23-4.48-7.29-3.82-.91.29-1.45,1.68-2.8,1.26-.11-1.33,1.68-2,2.13-2.6.55-.74.84-14.92.71-16.89-.05-.78-.3-1.5-.37-2.27-.41-.39-3.23,3.05-3.15,1.22.03-.73,9.38-7.65,10.74-8.74ZM49.16,32.07c-1.42-1.03-1.01,4.15-1.06,4.73-.33,4.52-.52,9.08-.32,13.65,1.23.29,5.32,5.01,6.27,4.08-.55-5.65.13-11.29.29-16.96-.32-1.85-4.67-3.72-5.19-5.51Z"/>
  </g>
  <path d="M71.25,59.96s.47.02.68-.27c4.41-6.15,9.77-12.15,14.36-18.2.45-.6.6-1.59,1.46-1.54-3.98-4.21-7.81-9.43-6.57-15.54l2.38-3.77c-.34-.34-2.11,1.66-2.1.17.32-.61,2.16-1.48,2.64-1.93,1.7-1.57,3.53-4.41,6.13-4.76.87-.12,4.74.4,5.72.65,2,.49,4.75,2.21,6.83,2.65,4.2.89,4.8-1.31,7.46-3.27,1.12-.83,2-.78,1.02.61-1.37,1.95-5.18,4.63-6.99,6.77-1.65,1.96-2.95,4.43-4.61,6.27-.56.75-4.54,4.96-4.54,5.31,0,.51.27.58.59.83,5.92,4.44,17.47,5.99,15.55,16.03-.63,3.28-15.1,14.74-18.87,16.24-4.06-.37-8.15-.13-11.77-2.4-.34-.21-3.53-3.39-3.64-3.62-.35-.73-.39-1.88-.47-2.7-.8-.13-1.03.86-1.69,1.37-.28.22-.96.18-1.46.57-.39.31-.84,1.48-1.25,1.56-.51.11-1.1-.65-.85-1.03ZM84.73,45.7c-1.9,2.94-2.82,5.46-.66,8.61,3.02,4.41,12.09,6.81,16.77,4.2.73-.41,3.31-2.44,3.55-3.12,1.52-4.51-2.31-7.67-5.66-9.74-2.87-1.77-6.06-2.96-8.87-4.86-.52-.26-.82-.12-1.25.18-.55.38-3.38,3.96-3.87,4.73ZM87.78,21.01c-.38,2.46.98,5.79,2.43,7.88.62.9,2.57,3.22,3.61,2.93l6.57-7.49c-4.77.36-8.17-2.77-12.61-3.33Z"/>
  <path d="M175.41,56.25c.3-.52-.59-6.9-.63-8.16-.41-11.93.43-24.67.77-36.51.05-1.74-.33-3.43,0-5.1.66.14.63.69.71,1.22.48,3.51-.51,6.88.34,10.36l3.68-4.92c1.54-1.27,2.9-2.69,4.42-4,.42-.36,1.08-2.06,2.08-1.24.39.32-2.2,2.75-2.53,3.26-3.17,5.05-2.95,13.6-3.1,19.39-.03,1.38-.77,2.55-.02,4.02.68.18.68-.28.99-.59,1.39-1.37,2.7-3.56,4.11-5.02.94-.98,3.1-2.29,3.94-3.28.36-.41-.41-1.3,1.47-.91-.23,1.65,2.38,4.15,3.81,4.47,2.28.51,3.17-1.57,4.99-1.14-.01.58-1.88,2.16-2.23,3.39-.33,1.13.02,1.63-.07,2.45-.9,7.88,1.47,16.79-1.08,24.51-1.45,4.4-4.43,10.28-7.34,13.73-.2.23-.18.68-.25.98l-.49.03c-.54.05-.62.07-.49-.48,1.02-4.38,3.46-7.55,3.83-12.68.57-7.86-1.3-16.18-.68-24.04l-3.84-.56-2.99-2.96c-.9,1.6-3.39,2.59-3.68,4.4-.72,4.54.73,10.69.72,15.37,1.66,1.71,3.6,1.95,5.82,1.73.52-.05.92-.37.78.44-2.65,2.06-4.69,5.28-7.57,6.84-2.82-.23-5.06-1.89-7.88-2.11-.51-1.43,2.11-2.41,2.38-2.87Z"/>
  <path d="M115.59,25.33c1.67-1.08,4.23,1.94,5.9,2.59-1.35,8.16-.45,16.44-.34,24.64,2.9.06,6.12,1.82,8.91,1.84,2.02.01.86-1.43.89-2.33.15-4.05-.24-7.84-.38-11.88-.06-1.59.37-8.49-.31-9.15-.46-.45-2.32-.47-2.11-1.38l6.54-6.1c.56.15,1.06.47,1.59.71s2.12,1.32,2.48,1.47c1.01.42,2.36.47,3.38,1,1.08,1.74-3.2,3.54-4.17,4.76v18.46s4.45,3.73,4.45,3.73l2.39-1.36.12,1.18-10.67,10.39c-1.75-.45,1.19-2.29,1.43-2.82.61-1.36-3.52-3.38-4.27-4.49-.96-.2-4.49,4.04-5.57,4.49-1.99.09-3.98-.37-5.93-.74-2.19-.41-4.53-1.14-6.76-1.69-.62-.15-1.26-.3-1.87-.04.18-3.04,3.06-2.95,3.13-6.53-.62-5.96-.61-11.92-.08-17.88l-4.08-3.15c1.07-2.27,2.77-3.18,4.6-4.53.39-.29.52-.99.77-1.15Z"/>
  <path d="M148.48,34.53c-.36-.28-2.14,1.01-2.46-.35.41-.02.84-.18,1.18-.4,4.94-3.3,9.81-6.8,14.61-10.31,1.31-.41,2.7-.09,3.96.29.89.27,4.47,2.11,4.48,2.87-.31,1.34-2.09,2.48-2.78,3.63-.65,1.07-2.99,7.3-3.71,7.36-.15.01-.55-.37-.89-.27.29-1.78,1.29-3.98-.1-5.51-.76-.84-5.96-3.41-6.76-2.24-1.5,7.12,1.12,14.61-.88,21.6,4.31,0,8.54,3.48,12.72,2.21.23-.07,2.93-1.78,2.37-.44-.26.62-2.5,2.26-3.19,2.78-1.14.86-4.41,3.27-5.51,3.61-4.74,1.46-6.79-1.51-11.11-1.68-2.56-.1-2.61.5-4.76,1.41.64-1.57,2.83-3.04,3.15-4.75.66-3.51-.56-9.53-.69-13.31-.07-2.08-.18-4.56.37-6.5Z"/>
  <path d="M213.84,49.77c1.83-1.89,9.95-8.84,12.05-9.89,1.49-.74,3.06-.25,4.66-.43l5.52-16.44c.43-2.26-2.09.06-2.83.15-2.03.24-5.29-1.45-6.99-1.2-1.82.26-2.3,1.79-3.9,2.43-.5-.27-.06-.92.16-1.25.36-.54,6.14-6.52,6.61-6.81,3.81-2.38,5.71.38,9.4,0,2.15-.22,2.31-1.98,4.38-1.76-.45,2.81.52,5.79,1,8.65.5,3.04.78,4.52,1.57,7.47.71,2.62,1.48,5.4,2.32,7.75,2.84-.34,4.26-3.74,7.02-3.5.34.29-1.53,1.97-1.79,2.22-1.51,1.43-3.42,2.46-4.37,4.41l4.11,15.41,3.72,1.06,3.06-1.69c.24-.08.23.28.18.53-.29,1.44-6.93,6.13-7.97,7.85-.87.29-2.31-.77-3.46-.71-.66.03-1.32,2.27-2.44-.66-1,.07-4.55,2.86-4.91,2.8-.55-.1-.48-.42-.18-.88.74-1.13,5.13-4.34,5.17-4.9l-4.12-15.25c-.58-.51-3.84.88-4.74.99-1.61.2-6.34-.55-7.1.97-.64,1.27-1.82,7.54-2.03,9.21-.1.78.33,1.51.2,2.23-.03.19-1.63,2.85-1.89,3.28-.77,1.27-5.13,3.87-6.54,4.17-2.51.53-4.8-1.12-6.11-3.04-2.91-4.26-3.52-9.28.27-13.18ZM228.78,46.54c-3.31-.52-5.41-1.91-8.57-.05-2.29,1.34-2.17,2.51-1.92,5.09.28,2.96,3.11,8.57,6.76,7.48,2.17-.64,1.73-3.74,2.09-5.28.27-1.16,2.16-6.63,1.64-7.25ZM234.27,40.2c1.71.19,3.7-.13,5.44,0l-2.97-15.45-.87.24-4.22,13.67.33,1.03c.75-.03,1.73.44,2.3.51Z"/>
  <path d="M310.27,29.14l4.03,4.83,5.43-4.69c3.16.56,6.36,1.91,9.33,3.38l.17,3.16,5.1-4.55c1.1-.6,2.47-2.36,3.8-2.13.24.04.25.62.66.82,1.18.57,6.21,2.16,6.55,3.29-.43,2.09-1.22,4.1-1.39,6.25-.75,9.52,2.74,15.9-3.58,24.52-.85,1.16-6.72,7.96-7.5,8.3-.42.18-.7-.11-.52-.52.35-.81,2.27-2.7,2.87-3.8.52-.95,1.23-2.65,1.58-3.69,2.28-6.84-.61-15.22.65-22.54.05-.29.35-.63.55-.87l-.69-.18v-.68s.7-.19.7-.19v-.68c-3.05-2-8.56-5.95-9.15.3-.39,4.17.25,9.03.08,13.28.39,1.36,3.04,1.57,4.31,2.01.37.13.65-.27.53.53-.14.94-5.05,4.81-5.71,6.05l-7.99-1.69c-.39-1.35,1.96-2.47,2.11-3.32.5-2.73.29-13.07.03-16.17-.05-.58-.06-1.15-.33-1.68l-8.1-2.7.4,17.35,4.49,1.96c-1,.03-1.11,1.29-1.76,1.93s-1.55,1.02-2.18,1.58c-.98.88-2.76,3.32-4.07,2.93-.35-.11-2.83-1.46-3.22-1.73-4.39-2.98-1.53-2.45-.87-4.35,1.53-4.38-.42-10.93.55-15.65l-4.21-4.6c-.17-.94,6.2-4.63,6.83-6.08h.51Z"/>
  <path d="M258.53,33.32c.86-.71,3.25-3.22,4.02-3.55.71-.3,5.12,2.02,5.44,2.65.38.75-.76,2.58.32,3.5,3.52-2.28,5.87-6.03,9.51-8.05,1.6,1.93,5,3.65,7.53,3.85.23,1.2-.77,1.95-.98,3.06-1.36,7.42.77,14.39-1.33,21.86-1.67,5.94-5.14,10.94-8.8,15.78l-.72-.71c.68-2.12,1.94-4.04,2.67-6.12,1.89-5.41,2.01-11.25,1.04-16.86l.69-10.65-6.51-3.15c-5.47,2.46-3.19,9.97-3,14.85.04,1.02-.62,3.67.31,4.41.61.48,2.03.71,2.78,1,.36.14.6-.19.48.56-1.94,2.07-3.95,4.49-6.23,6.08l-7.11-1.7,2.75-2.68-.26-19.2-4.93-2.89c.15-1.27,1.7-1.54,2.32-2.05Z"/>
  <path d="M358.84,31.18c.87-.62,2.25-1.3,3.17-1.94.81-.57.99-1.66,2.51-1.73l7.4,5.94c1.13.22,3.38-1.98,3.64-1.68,1,1.18-1.66,2.08-2,2.56-.86,1.21-.42,8.25-.46,10.26-.02,1.19-.56,2.15-.35,3.47.24,1.5,3.41,3.53,4.55,4.61.36.13,2.24-2.01,2.45-.37l-10.07,9.24c-2.3.23.75-2.02.43-2.75l-4.22-3.39c-.89-.02-5.36,5.35-6.33,5.51-.74.12-1.44-.14-2.12-.36-2.07-.67-6.19-4.13-7.87-3.35-.44.2-1.69,2.31-2.11,1.04-.32-.95,2.02-1.91,2.35-3.42.55-2.57-.26-5.37-.26-7.8,0-1.14.86-7.02.39-7.55-1.02-.35-2.15,1.37-2.28,1.41-1.43.42-.84-1.06-.15-1.56.45-.33,1.16-.34,1.71-.74,3.23-2.35,6.42-5.09,9.63-7.39ZM357.67,33.51c-.03.61-.6,1.01-.69,1.6-.18,1.13-.32,3.63-.37,4.9-.16,3.67.71,7.18-.02,10.7l8.61,3.81c.48-.08.81-3.23.87-3.98.23-3.43-.59-6.77-.07-10.13l-8.33-6.9Z"/>
  <path d="M379.63,56.75c.57-.72,1.79-2.41,1.9-3.2.7-5.18-.89-12.81-1.06-18.25-.25-7.88.01-15.71-.18-23.6-.04-1.45.66-7.31.14-8.13-.11-.17-.67.08-.62-.24l.73-.37-.66-2.16c-.03-.52.31-.8.81-.8,1.33-.03.49,13.42.52,14.75l2.81-4.73,6.32-5.43c.52.67-1.88,3.33-2.22,4.21-2.49,6.5-.96,21.32-.6,28.59.08,1.75-.13,3.54-.03,5.29.2,3.67.65,7.38.86,11.04.33.56,2.07.95,2.59.63.27-.17.53-1.68,1.83-.79-.81.94-6.42,7.67-6.92,7.84-2.1.72-4.68-1.98-6.26-2.04-.79-.03-1.84,1.12-2.45,1.03-.51-.07-.49-.41-.18-.88.61-.91,2.12-2.01,2.69-2.75Z"/>
  <path d="M289.06,55.84c1.33-1.57.76-3.76.83-5.67.15-3.79.36-7.76.39-11.59.02-2.03-1.08-3.9.32-5.96l-2.46-1.06,5.72-5.92c.55-.22,2.46.1,3.14.23,7.46,1.41,2.58,2.6.27,6.4l-.4,21,4.92,2.17-6.12,5.45c-.92,1.43-8.23-2.09-8.47-2.48-.67-1.06,1.45-2.13,1.84-2.59Z"/>
  <path d="M289.78,16.14c.86-.89,4.25-5.45,5.25-5.37l5.09,3.97c.14.46-1.45,2.28-1.84,2.74-.59.71-3.96,4.38-4.38,4.37l-5.38-4.33c-.16-.61.9-1.01,1.26-1.38Z"/>
</svg>